<svg id="Capa_1" data-name="Capa 1" xmlns="http://www.w3.org/2000/svg" viewBox="0 0 39 39"><defs><style>.cls-1{fill:#57dcdb;}</style></defs><path class="cls-1" d="M21.11,39h-3.4c-.22-.18-.49-.13-.74-.16A19.46,19.46,0,0,1,.36,23.16C.22,22.48.12,21.79,0,21.11v-3.4c.18-.22.13-.49.16-.74A19.47,19.47,0,0,1,15.84.36C16.52.22,17.21.12,17.89,0H21.2c.25.18.55.12.83.16A19.47,19.47,0,0,1,38.64,15.84c.14.68.24,1.37.35,2.05v3.4c-.18.22-.13.49-.16.74A19.45,19.45,0,0,1,23.16,38.64C22.48,38.78,21.79,38.88,21.11,39ZM37.52,19.46a18,18,0,1,0-18,18.06A18,18,0,0,0,37.52,19.46Z"/><path class="cls-1" d="M30.74,26.91c0,1.19,0,2.39,0,3.58a.66.66,0,0,1-.34.62C27,33.69,23,34.42,18.84,34.31a19.29,19.29,0,0,1-7.5-1.44A18.74,18.74,0,0,1,8.22,31,.46.46,0,0,1,8,30.59c0-2.37,0-4.74,0-7.11a6.8,6.8,0,0,1,4.65-6.15.61.61,0,0,1,.65.12,9,9,0,0,0,9.05,1.8,8.39,8.39,0,0,0,3-1.86.56.56,0,0,1,.61-.14,6.83,6.83,0,0,1,4.76,6.41Z"/><path class="cls-1" d="M12.94,10.88a6.6,6.6,0,0,1,5.92-6.72A6.46,6.46,0,0,1,26.2,10a6.7,6.7,0,0,1-2.33,6.08,6.46,6.46,0,0,1-6.16,1.24A6.33,6.33,0,0,1,13,12,9.93,9.93,0,0,1,12.94,10.88Z"/></svg>